<svg width="37" height="27" viewBox="0 0 37 27" fill="none" xmlns="http://www.w3.org/2000/svg">
<g clip-path="url(#clip0_211_662)">
<path d="M8.88656 26.8671V13.0299L4.57288 9.10402L0.704712 6.92542V24.4252C0.704712 25.7763 1.8051 26.8671 3.15932 26.8671H8.88656V26.8671Z" fill="#4285F4"/>
<path d="M28.5228 26.8671H34.2501C35.6084 26.8671 36.7047 25.7722 36.7047 24.4252V6.92554L32.3234 9.42087L28.5228 13.0299V26.8671V26.8671Z" fill="#34A853"/>
<path d="M8.88653 13.0299L8.29956 7.62336L8.88653 2.44873L18.7047 9.77426L28.5228 2.44873L29.1796 7.34398L28.5228 13.0299L18.7047 20.3555L8.88653 13.0299Z" fill="#EA4335"/>
<path d="M28.5228 2.4487V13.0299L36.7047 6.92539V3.66958C36.7047 0.649916 33.2397 -1.07151 30.8139 0.739449L28.5228 2.4487Z" fill="#FBBC04"/>
<path d="M0.704712 6.92533L4.4677 9.73305L8.88656 13.0298V2.44864L6.59549 0.739391C4.16549 -1.07171 0.704712 0.649857 0.704712 3.66938V6.92519V6.92533Z" fill="#C5221F"/>
</g>
<defs>
<clipPath id="clip0_211_662">
<rect width="36" height="27" fill="white" transform="translate(0.704712)"/>
</clipPath>
</defs>
</svg>

